<svg width="1008" height="1008" viewBox="0 0 1008 1008" fill="none" xmlns="http://www.w3.org/2000/svg">
<rect width="1008" height="1008" fill="#E5E5E5"/>
<g filter="url(#filter0_d)">
<path d="M269.035 671.381C257.316 671.055 246.249 670.893 235.832 670.893C225.415 670.893 215.65 670.893 206.535 670.893C187.98 670.893 172.03 671.055 158.684 671.381C145.5 671.869 134.514 672.276 125.725 672.602C115.633 673.09 107.089 673.578 100.09 674.066C101.229 663.161 102.206 652.094 103.02 640.863C103.996 629.633 104.81 618.565 105.461 607.66C106.112 596.755 106.682 586.176 107.17 575.922C107.658 565.668 108.065 555.984 108.391 546.869C109.042 525.71 109.449 505.284 109.611 485.59C109.449 466.059 109.042 446.039 108.391 425.531C108.065 416.742 107.658 407.546 107.17 397.943C106.682 388.178 106.112 378.249 105.461 368.158C104.81 358.067 103.996 347.976 103.02 337.885C102.206 327.631 101.229 317.702 100.09 308.1L172.111 304.438C169.019 341.221 166.903 376.703 165.764 410.883C164.624 444.9 164.055 476.312 164.055 505.121C164.055 532.79 164.299 556.472 164.787 576.166C165.438 595.86 166.008 610.834 166.496 621.088H167.473C180.168 621.088 192.538 620.111 204.582 618.158C216.789 616.205 227.694 614.008 237.297 611.566C248.527 608.799 259.107 605.626 269.035 602.045C268.872 603.835 268.791 606.114 268.791 608.881C268.628 611.16 268.547 614.171 268.547 617.914C268.547 621.495 268.547 625.889 268.547 631.098C268.547 636.306 268.547 642.247 268.547 648.92C268.547 655.43 268.71 662.917 269.035 671.381ZM359.855 313.471C359.855 318.679 358.879 323.643 356.926 328.363C354.973 332.921 352.287 336.908 348.869 340.326C345.451 343.744 341.382 346.511 336.662 348.627C332.105 350.58 327.222 351.557 322.014 351.557C316.805 351.557 311.841 350.58 307.121 348.627C302.564 346.511 298.576 343.744 295.158 340.326C291.74 336.908 288.973 332.921 286.857 328.363C284.904 323.643 283.928 318.679 283.928 313.471C283.928 308.262 284.904 303.38 286.857 298.822C288.973 294.102 291.74 290.033 295.158 286.615C298.576 283.197 302.564 280.512 307.121 278.559C311.841 276.443 316.805 275.385 322.014 275.385C327.222 275.385 332.105 276.443 336.662 278.559C341.382 280.512 345.451 283.197 348.869 286.615C352.287 290.033 354.973 294.102 356.926 298.822C358.879 303.38 359.855 308.262 359.855 313.471ZM359.855 387.445C358.553 400.303 357.414 414.219 356.438 429.193C355.624 444.005 354.891 459.223 354.24 474.848C353.752 490.473 353.345 506.179 353.02 521.967C352.694 537.755 352.45 552.81 352.287 567.133C352.124 581.456 351.962 594.883 351.799 607.416C351.799 619.786 351.799 630.447 351.799 639.398V666.986L296.379 668.939C296.704 657.709 296.867 646.804 296.867 636.225C296.867 625.645 296.867 615.066 296.867 604.486C296.867 586.094 296.704 568.191 296.379 550.775C296.053 533.197 295.484 515.619 294.67 498.041C294.019 480.463 293.124 462.641 291.984 444.574C290.845 426.508 289.462 407.79 287.834 388.422L359.855 387.445ZM588.615 452.387C588.29 452.875 588.046 454.096 587.883 456.049C587.72 458.002 587.557 460.443 587.395 463.373C587.395 466.303 587.395 469.639 587.395 473.383C587.395 476.964 587.395 480.707 587.395 484.613C587.395 488.52 587.395 492.507 587.395 496.576C587.395 500.482 587.395 504.145 587.395 507.562C587.557 510.98 587.72 514.073 587.883 516.84C588.046 519.444 588.29 521.479 588.615 522.943C565.829 521.641 541.496 520.746 515.617 520.258C489.738 519.77 463.371 519.525 436.516 519.525H394.523C394.849 513.992 395.174 507.969 395.5 501.459C395.826 494.949 395.988 488.113 395.988 480.951C395.988 471.999 395.5 462.478 394.523 452.387C401.848 453.526 409.742 454.503 418.205 455.316C426.831 456.13 435.702 456.863 444.816 457.514C454.094 458.002 463.534 458.409 473.137 458.734C482.74 458.897 492.18 458.979 501.457 458.979C510.897 458.979 520.012 458.897 528.801 458.734C537.59 458.409 545.728 458.002 553.215 457.514C560.865 456.863 567.701 456.13 573.723 455.316C579.745 454.503 584.709 453.526 588.615 452.387ZM689.934 280.512C688.957 300.368 688.062 318.76 687.248 335.688C686.434 352.615 685.702 368.565 685.051 383.539C684.562 398.513 684.156 412.755 683.83 426.264C683.505 439.773 683.179 453.119 682.854 466.303C682.691 479.486 682.528 492.751 682.365 506.098C682.365 519.444 682.365 533.441 682.365 548.09C682.365 564.366 682.365 581.781 682.365 600.336C682.365 618.891 682.528 639.48 682.854 662.104L627.434 660.883C628.41 636.306 629.061 612.136 629.387 588.373C629.712 564.447 629.875 539.952 629.875 514.887C629.875 498.122 629.794 480.951 629.631 463.373C629.468 445.632 629.224 427.159 628.898 407.953C628.573 388.585 628.166 368.24 627.678 346.918C627.352 325.596 626.945 302.973 626.457 279.047L689.934 280.512ZM908.195 392.572C907.219 402.175 906.405 411.941 905.754 421.869C905.103 431.635 904.452 441.4 903.801 451.166C903.312 460.932 902.824 470.453 902.336 479.73C901.848 488.845 901.441 497.553 901.115 505.854C900.301 525.222 899.65 543.939 899.162 562.006C898.186 581.212 897.616 600.255 897.453 619.135C897.453 637.852 896.883 655.674 895.744 672.602C894.605 689.691 892.408 705.479 889.152 719.965C886.06 734.613 880.933 747.227 873.771 757.807C866.61 768.549 856.926 776.931 844.719 782.953C832.674 788.975 817.131 791.986 798.088 791.986C783.765 791.986 772.29 789.87 763.664 785.639C755.201 781.57 748.69 776.524 744.133 770.502C739.576 764.643 736.564 758.376 735.1 751.703C733.798 745.03 733.146 739.089 733.146 733.881C733.146 728.347 733.96 723.139 735.588 718.256C737.378 713.536 739.82 709.385 742.912 705.805C746.005 702.224 749.748 699.376 754.143 697.26C758.7 695.144 763.827 694.086 769.523 694.086C775.546 694.086 780.917 695.225 785.637 697.504C790.357 699.783 794.263 702.712 797.355 706.293C800.611 710.036 803.052 714.187 804.68 718.744C806.307 723.301 807.121 727.859 807.121 732.416C806.958 735.02 806.389 737.706 805.412 740.473C804.598 742.751 803.133 745.274 801.018 748.041C799.064 750.971 796.298 753.819 792.717 756.586C794.67 757.4 796.46 757.888 798.088 758.051C799.878 758.376 801.587 758.539 803.215 758.539C807.447 758.539 811.841 757.237 816.398 754.633C821.118 752.191 825.432 748.285 829.338 742.914C833.244 737.543 836.499 730.788 839.104 722.65C841.708 714.512 843.173 704.828 843.498 693.598C843.498 681.391 843.498 669.428 843.498 657.709C843.661 645.99 843.905 633.051 844.23 618.891C838.697 629.47 832.756 637.689 826.408 643.549C820.061 649.245 814.038 653.477 808.342 656.244C801.831 659.499 795.24 661.452 788.566 662.104C776.522 662.104 766.024 659.092 757.072 653.07C748.12 647.048 740.715 638.503 734.855 627.436C728.996 616.368 724.602 603.103 721.672 587.641C718.905 572.016 717.521 554.6 717.521 535.395C717.521 482.172 721.184 431.391 728.508 383.051L790.52 389.887C789.217 395.258 787.915 401.117 786.613 407.465C785.474 413.812 784.416 420.404 783.439 427.24C782.463 434.076 781.568 440.993 780.754 447.992C780.103 454.828 779.452 461.42 778.801 467.768C777.336 482.742 776.115 497.96 775.139 513.422C775.139 528.884 775.627 542.393 776.604 553.949C777.58 565.342 779.289 574.864 781.73 582.514C784.335 590.001 787.834 595.616 792.229 599.359C796.623 603.103 802.238 604.975 809.074 604.975C813.957 604.161 818.677 600.743 823.234 594.721C825.188 592.117 827.222 588.861 829.338 584.955C831.454 581.049 833.57 576.247 835.686 570.551C837.801 564.854 839.836 558.181 841.789 550.531C843.742 542.719 845.533 533.686 847.16 523.432C847.648 510.736 847.974 499.18 848.137 488.764C848.462 478.184 848.625 468.093 848.625 458.49C848.625 446.934 848.381 435.867 847.893 425.287C847.404 414.545 846.672 403.314 845.695 391.596L908.195 392.572Z" fill="black"/>
<path d="M4 0V-1H3V0H4ZM1004 0H1005V-1H1004V0ZM1004 1000V1001H1005V1000H1004ZM4 1000H3V1001H4V1000ZM4 1H1004V-1H4V1ZM1003 0V1000H1005V0H1003ZM1004 999H4V1001H1004V999ZM5 1000V0H3V1000H5Z" fill="black"/>
</g>
<defs>
<filter id="filter0_d" x="0" y="0" width="1008" height="1008" filterUnits="userSpaceOnUse" color-interpolation-filters="sRGB">
<feFlood flood-opacity="0" result="BackgroundImageFix"/>
<feColorMatrix in="SourceAlpha" type="matrix" values="0 0 0 0 0 0 0 0 0 0 0 0 0 0 0 0 0 0 127 0" result="hardAlpha"/>
<feOffset dy="4"/>
<feGaussianBlur stdDeviation="2"/>
<feComposite in2="hardAlpha" operator="out"/>
<feColorMatrix type="matrix" values="0 0 0 0 0 0 0 0 0 0 0 0 0 0 0 0 0 0 0.25 0"/>
<feBlend mode="normal" in2="BackgroundImageFix" result="effect1_dropShadow"/>
<feBlend mode="normal" in="SourceGraphic" in2="effect1_dropShadow" result="shape"/>
</filter>
</defs>
</svg>
