<svg width="1008" height="1008" viewBox="0 0 1008 1008" fill="none" xmlns="http://www.w3.org/2000/svg">
<rect width="1008" height="1008" fill="#E5E5E5"/>
<g filter="url(#filter0_d)">
<path d="M4 0H1004V1000H4V0Z" fill="#F3F3F3"/>
<path d="M367.156 608.859C360.406 608.672 354.031 608.578 348.031 608.578C342.031 608.578 336.406 608.578 331.156 608.578C320.469 608.578 311.281 608.672 303.594 608.859C296 609.141 289.672 609.375 284.609 609.562C278.797 609.844 273.875 610.125 269.844 610.406C270.5 604.125 271.062 597.75 271.531 591.281C272.094 584.812 272.562 578.438 272.938 572.156C273.312 565.875 273.641 559.781 273.922 553.875C274.203 547.969 274.438 542.391 274.625 537.141C275 524.953 275.234 513.188 275.328 501.844C275.234 490.594 275 479.062 274.625 467.25C274.438 462.188 274.203 456.891 273.922 451.359C273.641 445.734 273.312 440.016 272.938 434.203C272.562 428.391 272.094 422.578 271.531 416.766C271.062 410.859 270.5 405.141 269.844 399.609L311.328 397.5C309.547 418.688 308.328 439.125 307.672 458.812C307.016 478.406 306.688 496.5 306.688 513.094C306.688 529.031 306.828 542.672 307.109 554.016C307.484 565.359 307.812 573.984 308.094 579.891H308.656C315.969 579.891 323.094 579.328 330.031 578.203C337.062 577.078 343.344 575.812 348.875 574.406C355.344 572.812 361.438 570.984 367.156 568.922C367.062 569.953 367.016 571.266 367.016 572.859C366.922 574.172 366.875 575.906 366.875 578.062C366.875 580.125 366.875 582.656 366.875 585.656C366.875 588.656 366.875 592.078 366.875 595.922C366.875 599.672 366.969 603.984 367.156 608.859ZM419.469 402.703C419.469 405.703 418.906 408.562 417.781 411.281C416.656 413.906 415.109 416.203 413.141 418.172C411.172 420.141 408.828 421.734 406.109 422.953C403.484 424.078 400.672 424.641 397.672 424.641C394.672 424.641 391.812 424.078 389.094 422.953C386.469 421.734 384.172 420.141 382.203 418.172C380.234 416.203 378.641 413.906 377.422 411.281C376.297 408.562 375.734 405.703 375.734 402.703C375.734 399.703 376.297 396.891 377.422 394.266C378.641 391.547 380.234 389.203 382.203 387.234C384.172 385.266 386.469 383.719 389.094 382.594C391.812 381.375 394.672 380.766 397.672 380.766C400.672 380.766 403.484 381.375 406.109 382.594C408.828 383.719 411.172 385.266 413.141 387.234C415.109 389.203 416.656 391.547 417.781 394.266C418.906 396.891 419.469 399.703 419.469 402.703ZM419.469 445.312C418.719 452.719 418.062 460.734 417.5 469.359C417.031 477.891 416.609 486.656 416.234 495.656C415.953 504.656 415.719 513.703 415.531 522.797C415.344 531.891 415.203 540.562 415.109 548.812C415.016 557.062 414.922 564.797 414.828 572.016C414.828 579.141 414.828 585.281 414.828 590.438V606.328L382.906 607.453C383.094 600.984 383.188 594.703 383.188 588.609C383.188 582.516 383.188 576.422 383.188 570.328C383.188 559.734 383.094 549.422 382.906 539.391C382.719 529.266 382.391 519.141 381.922 509.016C381.547 498.891 381.031 488.625 380.375 478.219C379.719 467.812 378.922 457.031 377.984 445.875L419.469 445.312ZM551.234 482.719C551.047 483 550.906 483.703 550.812 484.828C550.719 485.953 550.625 487.359 550.531 489.047C550.531 490.734 550.531 492.656 550.531 494.812C550.531 496.875 550.531 499.031 550.531 501.281C550.531 503.531 550.531 505.828 550.531 508.172C550.531 510.422 550.531 512.531 550.531 514.5C550.625 516.469 550.719 518.25 550.812 519.844C550.906 521.344 551.047 522.516 551.234 523.359C538.109 522.609 524.094 522.094 509.188 521.812C494.281 521.531 479.094 521.391 463.625 521.391H439.438C439.625 518.203 439.812 514.734 440 510.984C440.188 507.234 440.281 503.297 440.281 499.172C440.281 494.016 440 488.531 439.438 482.719C443.656 483.375 448.203 483.938 453.078 484.406C458.047 484.875 463.156 485.297 468.406 485.672C473.75 485.953 479.188 486.188 484.719 486.375C490.25 486.469 495.688 486.516 501.031 486.516C506.469 486.516 511.719 486.469 516.781 486.375C521.844 486.188 526.531 485.953 530.844 485.672C535.25 485.297 539.188 484.875 542.656 484.406C546.125 483.938 548.984 483.375 551.234 482.719ZM609.594 383.719C609.031 395.156 608.516 405.75 608.047 415.5C607.578 425.25 607.156 434.438 606.781 443.062C606.5 451.688 606.266 459.891 606.078 467.672C605.891 475.453 605.703 483.141 605.516 490.734C605.422 498.328 605.328 505.969 605.234 513.656C605.234 521.344 605.234 529.406 605.234 537.844C605.234 547.219 605.234 557.25 605.234 567.938C605.234 578.625 605.328 590.484 605.516 603.516L573.594 602.812C574.156 588.656 574.531 574.734 574.719 561.047C574.906 547.266 575 533.156 575 518.719C575 509.062 574.953 499.172 574.859 489.047C574.766 478.828 574.625 468.188 574.438 457.125C574.25 445.969 574.016 434.25 573.734 421.969C573.547 409.688 573.312 396.656 573.031 382.875L609.594 383.719ZM735.312 448.266C734.75 453.797 734.281 459.422 733.906 465.141C733.531 470.766 733.156 476.391 732.781 482.016C732.5 487.641 732.219 493.125 731.938 498.469C731.656 503.719 731.422 508.734 731.234 513.516C730.766 524.672 730.391 535.453 730.109 545.859C729.547 556.922 729.219 567.891 729.125 578.766C729.125 589.547 728.797 599.812 728.141 609.562C727.484 619.406 726.219 628.5 724.344 636.844C722.562 645.281 719.609 652.547 715.484 658.641C711.359 664.828 705.781 669.656 698.75 673.125C691.812 676.594 682.859 678.328 671.891 678.328C663.641 678.328 657.031 677.109 652.062 674.672C647.188 672.328 643.438 669.422 640.812 665.953C638.188 662.578 636.453 658.969 635.609 655.125C634.859 651.281 634.484 647.859 634.484 644.859C634.484 641.672 634.953 638.672 635.891 635.859C636.922 633.141 638.328 630.75 640.109 628.688C641.891 626.625 644.047 624.984 646.578 623.766C649.203 622.547 652.156 621.938 655.438 621.938C658.906 621.938 662 622.594 664.719 623.906C667.438 625.219 669.688 626.906 671.469 628.969C673.344 631.125 674.75 633.516 675.688 636.141C676.625 638.766 677.094 641.391 677.094 644.016C677 645.516 676.672 647.062 676.109 648.656C675.641 649.969 674.797 651.422 673.578 653.016C672.453 654.703 670.859 656.344 668.797 657.938C669.922 658.406 670.953 658.688 671.891 658.781C672.922 658.969 673.906 659.062 674.844 659.062C677.281 659.062 679.812 658.312 682.438 656.812C685.156 655.406 687.641 653.156 689.891 650.062C692.141 646.969 694.016 643.078 695.516 638.391C697.016 633.703 697.859 628.125 698.047 621.656C698.047 614.625 698.047 607.734 698.047 600.984C698.141 594.234 698.281 586.781 698.469 578.625C695.281 584.719 691.859 589.453 688.203 592.828C684.547 596.109 681.078 598.547 677.797 600.141C674.047 602.016 670.25 603.141 666.406 603.516C659.469 603.516 653.422 601.781 648.266 598.312C643.109 594.844 638.844 589.922 635.469 583.547C632.094 577.172 629.562 569.531 627.875 560.625C626.281 551.625 625.484 541.594 625.484 530.531C625.484 499.875 627.594 470.625 631.812 442.781L667.531 446.719C666.781 449.812 666.031 453.188 665.281 456.844C664.625 460.5 664.016 464.297 663.453 468.234C662.891 472.172 662.375 476.156 661.906 480.188C661.531 484.125 661.156 487.922 660.781 491.578C659.938 500.203 659.234 508.969 658.672 517.875C658.672 526.781 658.953 534.562 659.516 541.219C660.078 547.781 661.062 553.266 662.469 557.672C663.969 561.984 665.984 565.219 668.516 567.375C671.047 569.531 674.281 570.609 678.219 570.609C681.031 570.141 683.75 568.172 686.375 564.703C687.5 563.203 688.672 561.328 689.891 559.078C691.109 556.828 692.328 554.062 693.547 550.781C694.766 547.5 695.938 543.656 697.062 539.25C698.188 534.75 699.219 529.547 700.156 523.641C700.438 516.328 700.625 509.672 700.719 503.672C700.906 497.578 701 491.766 701 486.234C701 479.578 700.859 473.203 700.578 467.109C700.297 460.922 699.875 454.453 699.312 447.703L735.312 448.266Z" fill="black"/>
<path d="M4 0V-1H3V0H4ZM1004 0H1005V-1H1004V0ZM1004 1000V1001H1005V1000H1004ZM4 1000H3V1001H4V1000ZM4 1H1004V-1H4V1ZM1003 0V1000H1005V0H1003ZM1004 999H4V1001H1004V999ZM5 1000V0H3V1000H5Z" fill="black"/>
</g>
<defs>
<filter id="filter0_d" x="0" y="0" width="1008" height="1008" filterUnits="userSpaceOnUse" color-interpolation-filters="sRGB">
<feFlood flood-opacity="0" result="BackgroundImageFix"/>
<feColorMatrix in="SourceAlpha" type="matrix" values="0 0 0 0 0 0 0 0 0 0 0 0 0 0 0 0 0 0 127 0" result="hardAlpha"/>
<feOffset dy="4"/>
<feGaussianBlur stdDeviation="2"/>
<feComposite in2="hardAlpha" operator="out"/>
<feColorMatrix type="matrix" values="0 0 0 0 0 0 0 0 0 0 0 0 0 0 0 0 0 0 0.25 0"/>
<feBlend mode="normal" in2="BackgroundImageFix" result="effect1_dropShadow"/>
<feBlend mode="normal" in="SourceGraphic" in2="effect1_dropShadow" result="shape"/>
</filter>
</defs>
</svg>
