<svg width="809" height="517" viewBox="0 0 809 517" fill="none" xmlns="http://www.w3.org/2000/svg">
<path d="M169.035 396.381C157.316 396.055 146.249 395.893 135.832 395.893C125.415 395.893 115.65 395.893 106.535 395.893C87.9805 395.893 72.0299 396.055 58.6836 396.381C45.5 396.869 34.5137 397.276 25.7246 397.602C15.6335 398.09 7.08854 398.578 0.0898438 399.066C1.22917 388.161 2.20573 377.094 3.01953 365.863C3.99609 354.633 4.8099 343.565 5.46094 332.66C6.11198 321.755 6.68164 311.176 7.16992 300.922C7.6582 290.668 8.0651 280.984 8.39062 271.869C9.04167 250.71 9.44857 230.284 9.61133 210.59C9.44857 191.059 9.04167 171.039 8.39062 150.531C8.0651 141.742 7.6582 132.546 7.16992 122.943C6.68164 113.178 6.11198 103.249 5.46094 93.1582C4.8099 83.0671 3.99609 72.9759 3.01953 62.8848C2.20573 52.6309 1.22917 42.7025 0.0898438 33.0996L72.1113 29.4375C69.0189 66.2214 66.903 101.703 65.7637 135.883C64.6243 169.9 64.0547 201.312 64.0547 230.121C64.0547 257.79 64.2988 281.472 64.7871 301.166C65.4382 320.86 66.0078 335.834 66.4961 346.088H67.4727C80.168 346.088 92.5378 345.111 104.582 343.158C116.789 341.205 127.694 339.008 137.297 336.566C148.527 333.799 159.107 330.626 169.035 327.045C168.872 328.835 168.791 331.114 168.791 333.881C168.628 336.16 168.547 339.171 168.547 342.914C168.547 346.495 168.547 350.889 168.547 356.098C168.547 361.306 168.547 367.247 168.547 373.92C168.547 380.43 168.71 387.917 169.035 396.381ZM259.855 38.4707C259.855 43.679 258.879 48.6432 256.926 53.3633C254.973 57.9206 252.287 61.9082 248.869 65.3262C245.451 68.7441 241.382 71.5111 236.662 73.627C232.105 75.5801 227.222 76.5566 222.014 76.5566C216.805 76.5566 211.841 75.5801 207.121 73.627C202.564 71.5111 198.576 68.7441 195.158 65.3262C191.74 61.9082 188.973 57.9206 186.857 53.3633C184.904 48.6432 183.928 43.679 183.928 38.4707C183.928 33.2624 184.904 28.3796 186.857 23.8223C188.973 19.1022 191.74 15.0332 195.158 11.6152C198.576 8.19727 202.564 5.51172 207.121 3.55859C211.841 1.44271 216.805 0.384766 222.014 0.384766C227.222 0.384766 232.105 1.44271 236.662 3.55859C241.382 5.51172 245.451 8.19727 248.869 11.6152C252.287 15.0332 254.973 19.1022 256.926 23.8223C258.879 28.3796 259.855 33.2624 259.855 38.4707ZM259.855 112.445C258.553 125.303 257.414 139.219 256.438 154.193C255.624 169.005 254.891 184.223 254.24 199.848C253.752 215.473 253.345 231.179 253.02 246.967C252.694 262.755 252.45 277.81 252.287 292.133C252.124 306.456 251.962 319.883 251.799 332.416C251.799 344.786 251.799 355.447 251.799 364.398V391.986L196.379 393.939C196.704 382.709 196.867 371.804 196.867 361.225C196.867 350.645 196.867 340.066 196.867 329.486C196.867 311.094 196.704 293.191 196.379 275.775C196.053 258.197 195.484 240.619 194.67 223.041C194.019 205.463 193.124 187.641 191.984 169.574C190.845 151.508 189.462 132.79 187.834 113.422L259.855 112.445ZM488.615 177.387C488.29 177.875 488.046 179.096 487.883 181.049C487.72 183.002 487.557 185.443 487.395 188.373C487.395 191.303 487.395 194.639 487.395 198.383C487.395 201.964 487.395 205.707 487.395 209.613C487.395 213.52 487.395 217.507 487.395 221.576C487.395 225.482 487.395 229.145 487.395 232.562C487.557 235.98 487.72 239.073 487.883 241.84C488.046 244.444 488.29 246.479 488.615 247.943C465.829 246.641 441.496 245.746 415.617 245.258C389.738 244.77 363.371 244.525 336.516 244.525H294.523C294.849 238.992 295.174 232.969 295.5 226.459C295.826 219.949 295.988 213.113 295.988 205.951C295.988 196.999 295.5 187.478 294.523 177.387C301.848 178.526 309.742 179.503 318.205 180.316C326.831 181.13 335.702 181.863 344.816 182.514C354.094 183.002 363.534 183.409 373.137 183.734C382.74 183.897 392.18 183.979 401.457 183.979C410.897 183.979 420.012 183.897 428.801 183.734C437.59 183.409 445.728 183.002 453.215 182.514C460.865 181.863 467.701 181.13 473.723 180.316C479.745 179.503 484.709 178.526 488.615 177.387ZM589.934 5.51172C588.957 25.3685 588.062 43.7604 587.248 60.6875C586.434 77.6146 585.702 93.5651 585.051 108.539C584.562 123.513 584.156 137.755 583.83 151.264C583.505 164.773 583.179 178.119 582.854 191.303C582.691 204.486 582.528 217.751 582.365 231.098C582.365 244.444 582.365 258.441 582.365 273.09C582.365 289.366 582.365 306.781 582.365 325.336C582.365 343.891 582.528 364.48 582.854 387.104L527.434 385.883C528.41 361.306 529.061 337.136 529.387 313.373C529.712 289.447 529.875 264.952 529.875 239.887C529.875 223.122 529.794 205.951 529.631 188.373C529.468 170.632 529.224 152.159 528.898 132.953C528.573 113.585 528.166 93.2396 527.678 71.918C527.352 50.5964 526.945 27.9727 526.457 4.04688L589.934 5.51172ZM808.195 117.572C807.219 127.175 806.405 136.941 805.754 146.869C805.103 156.635 804.452 166.4 803.801 176.166C803.312 185.932 802.824 195.453 802.336 204.73C801.848 213.845 801.441 222.553 801.115 230.854C800.301 250.222 799.65 268.939 799.162 287.006C798.186 306.212 797.616 325.255 797.453 344.135C797.453 362.852 796.883 380.674 795.744 397.602C794.605 414.691 792.408 430.479 789.152 444.965C786.06 459.613 780.933 472.227 773.771 482.807C766.61 493.549 756.926 501.931 744.719 507.953C732.674 513.975 717.131 516.986 698.088 516.986C683.765 516.986 672.29 514.87 663.664 510.639C655.201 506.57 648.69 501.524 644.133 495.502C639.576 489.643 636.564 483.376 635.1 476.703C633.798 470.03 633.146 464.089 633.146 458.881C633.146 453.347 633.96 448.139 635.588 443.256C637.378 438.536 639.82 434.385 642.912 430.805C646.005 427.224 649.748 424.376 654.143 422.26C658.7 420.144 663.827 419.086 669.523 419.086C675.546 419.086 680.917 420.225 685.637 422.504C690.357 424.783 694.263 427.712 697.355 431.293C700.611 435.036 703.052 439.187 704.68 443.744C706.307 448.301 707.121 452.859 707.121 457.416C706.958 460.02 706.389 462.706 705.412 465.473C704.598 467.751 703.133 470.274 701.018 473.041C699.064 475.971 696.298 478.819 692.717 481.586C694.67 482.4 696.46 482.888 698.088 483.051C699.878 483.376 701.587 483.539 703.215 483.539C707.447 483.539 711.841 482.237 716.398 479.633C721.118 477.191 725.432 473.285 729.338 467.914C733.244 462.543 736.499 455.788 739.104 447.65C741.708 439.512 743.173 429.828 743.498 418.598C743.498 406.391 743.498 394.428 743.498 382.709C743.661 370.99 743.905 358.051 744.23 343.891C738.697 354.47 732.756 362.689 726.408 368.549C720.061 374.245 714.038 378.477 708.342 381.244C701.831 384.499 695.24 386.452 688.566 387.104C676.522 387.104 666.024 384.092 657.072 378.07C648.12 372.048 640.715 363.503 634.855 352.436C628.996 341.368 624.602 328.103 621.672 312.641C618.905 297.016 617.521 279.6 617.521 260.395C617.521 207.172 621.184 156.391 628.508 108.051L690.52 114.887C689.217 120.258 687.915 126.117 686.613 132.465C685.474 138.812 684.416 145.404 683.439 152.24C682.463 159.076 681.568 165.993 680.754 172.992C680.103 179.828 679.452 186.42 678.801 192.768C677.336 207.742 676.115 222.96 675.139 238.422C675.139 253.884 675.627 267.393 676.604 278.949C677.58 290.342 679.289 299.864 681.73 307.514C684.335 315.001 687.834 320.616 692.229 324.359C696.623 328.103 702.238 329.975 709.074 329.975C713.957 329.161 718.677 325.743 723.234 319.721C725.188 317.117 727.222 313.861 729.338 309.955C731.454 306.049 733.57 301.247 735.686 295.551C737.801 289.854 739.836 283.181 741.789 275.531C743.742 267.719 745.533 258.686 747.16 248.432C747.648 235.736 747.974 224.18 748.137 213.764C748.462 203.184 748.625 193.093 748.625 183.49C748.625 171.934 748.381 160.867 747.893 150.287C747.404 139.545 746.672 128.314 745.695 116.596L808.195 117.572Z" fill="black"/>
</svg>
